<?xml version="1.0" encoding="UTF-8" standalone="no"?>
<!DOCTYPE svg PUBLIC "-//W3C//DTD SVG 1.1//EN"
 "http://www.w3.org/Graphics/SVG/1.1/DTD/svg11.dtd">
<!-- Generated by graphviz version 2.40.1 (20161225.0304)
 -->
<!-- Title: public.articles Pages: 1 -->
<svg width="836pt" height="682pt"
 viewBox="0.00 0.00 836.00 682.00" xmlns="http://www.w3.org/2000/svg" xmlns:xlink="http://www.w3.org/1999/xlink">
<g id="graph0" class="graph" transform="scale(1 1) rotate(0) translate(4 678)">
<title>public.articles</title>
<polygon fill="#ffffff" stroke="transparent" points="-4,4 -4,-678 832,-678 832,4 -4,4"/>
<!-- public.articles -->
<g id="node1" class="node">
<title>public.articles</title>
<polygon fill="#efefef" stroke="transparent" points="290,-285.5 290,-320.5 543,-320.5 543,-285.5 290,-285.5"/>
<polygon fill="none" stroke="#000000" points="290,-285.5 290,-320.5 543,-320.5 543,-285.5 290,-285.5"/>
<text text-anchor="start" x="313.3709" y="-298.3" font-family="Arial Bold" font-size="18.00" fill="#000000">public.articles</text>
<text text-anchor="start" x="422.3753" y="-298.3" font-family="Arial" font-size="14.00" fill="#000000"> </text>
<text text-anchor="start" x="426.2659" y="-298.3" font-family="Arial" font-size="14.00" fill="#666666">[BASE TABLE]</text>
<polygon fill="none" stroke="#000000" points="290,-255.5 290,-285.5 543,-285.5 543,-255.5 290,-255.5"/>
<text text-anchor="start" x="297" y="-266.9" font-family="Arial" font-size="14.00" fill="#000000">id </text>
<text text-anchor="start" x="311.7798" y="-266.9" font-family="Arial" font-size="14.00" fill="#666666">[uuid]</text>
<polygon fill="none" stroke="#000000" points="290,-225.5 290,-255.5 543,-255.5 543,-225.5 290,-225.5"/>
<text text-anchor="start" x="297" y="-236.9" font-family="Arial" font-size="14.00" fill="#000000">title </text>
<text text-anchor="start" x="322.6676" y="-236.9" font-family="Arial" font-size="14.00" fill="#666666">[varchar]</text>
<polygon fill="none" stroke="#000000" points="290,-195.5 290,-225.5 543,-225.5 543,-195.5 290,-195.5"/>
<text text-anchor="start" x="297" y="-206.9" font-family="Arial" font-size="14.00" fill="#000000">url </text>
<text text-anchor="start" x="316.4404" y="-206.9" font-family="Arial" font-size="14.00" fill="#666666">[varchar]</text>
<polygon fill="none" stroke="#000000" points="290,-165.5 290,-195.5 543,-195.5 543,-165.5 290,-165.5"/>
<text text-anchor="start" x="297" y="-176.9" font-family="Arial" font-size="14.00" fill="#000000">description </text>
<text text-anchor="start" x="368.568" y="-176.9" font-family="Arial" font-size="14.00" fill="#666666">[varchar]</text>
<polygon fill="none" stroke="#000000" points="290,-135.5 290,-165.5 543,-165.5 543,-135.5 290,-135.5"/>
<text text-anchor="start" x="297" y="-146.9" font-family="Arial" font-size="14.00" fill="#000000">thumbnail </text>
<text text-anchor="start" x="361.568" y="-146.9" font-family="Arial" font-size="14.00" fill="#666666">[varchar]</text>
<polygon fill="none" stroke="#000000" points="290,-105.5 290,-135.5 543,-135.5 543,-105.5 290,-105.5"/>
<text text-anchor="start" x="297" y="-116.9" font-family="Arial" font-size="14.00" fill="#000000">created_at </text>
<text text-anchor="start" x="367.028" y="-116.9" font-family="Arial" font-size="14.00" fill="#666666">[timestamp with time zone]</text>
<polygon fill="none" stroke="#000000" points="290,-75.5 290,-105.5 543,-105.5 543,-75.5 290,-75.5"/>
<text text-anchor="start" x="296.6915" y="-86.9" font-family="Arial" font-size="14.00" fill="#000000">updated_at </text>
<text text-anchor="start" x="370.6241" y="-86.9" font-family="Arial" font-size="14.00" fill="#666666">[timestamp with time zone]</text>
<polygon fill="none" stroke="#000000" points="290,-45.5 290,-75.5 543,-75.5 543,-45.5 290,-45.5"/>
<text text-anchor="start" x="297" y="-56.9" font-family="Arial" font-size="14.00" fill="#000000">deleted_at </text>
<text text-anchor="start" x="366.2566" y="-56.9" font-family="Arial" font-size="14.00" fill="#666666">[timestamp with time zone]</text>
<polygon fill="none" stroke="#000000" stroke-width="3" points="288,-44.5 288,-322.5 544,-322.5 544,-44.5 288,-44.5"/>
</g>
<!-- public.article_tags -->
<g id="node2" class="node">
<title>public.article_tags</title>
<polygon fill="#efefef" stroke="transparent" points="107,-595.5 107,-630.5 362,-630.5 362,-595.5 107,-595.5"/>
<polygon fill="none" stroke="#000000" points="107,-595.5 107,-630.5 362,-630.5 362,-595.5 107,-595.5"/>
<text text-anchor="start" x="113.8605" y="-608.3" font-family="Arial Bold" font-size="18.00" fill="#000000">public.article_tags</text>
<text text-anchor="start" x="257.8857" y="-608.3" font-family="Arial" font-size="14.00" fill="#000000"> </text>
<text text-anchor="start" x="261.7763" y="-608.3" font-family="Arial" font-size="14.00" fill="#666666">[BASE TABLE]</text>
<polygon fill="none" stroke="#000000" points="107,-565.5 107,-595.5 362,-595.5 362,-565.5 107,-565.5"/>
<text text-anchor="start" x="114" y="-576.9" font-family="Arial" font-size="14.00" fill="#000000">id </text>
<text text-anchor="start" x="128.7798" y="-576.9" font-family="Arial" font-size="14.00" fill="#666666">[uuid]</text>
<polygon fill="none" stroke="#000000" points="107,-535.5 107,-565.5 362,-565.5 362,-535.5 107,-535.5"/>
<text text-anchor="start" x="114" y="-546.9" font-family="Arial" font-size="14.00" fill="#000000">tag </text>
<text text-anchor="start" x="137.3464" y="-546.9" font-family="Arial" font-size="14.00" fill="#666666">[varchar]</text>
<polygon fill="none" stroke="#000000" points="107,-505.5 107,-535.5 362,-535.5 362,-505.5 107,-505.5"/>
<text text-anchor="start" x="114" y="-516.9" font-family="Arial" font-size="14.00" fill="#000000">created_at </text>
<text text-anchor="start" x="184.028" y="-516.9" font-family="Arial" font-size="14.00" fill="#666666">[timestamp with time zone]</text>
<polygon fill="none" stroke="#000000" points="107,-475.5 107,-505.5 362,-505.5 362,-475.5 107,-475.5"/>
<text text-anchor="start" x="114" y="-486.9" font-family="Arial" font-size="14.00" fill="#000000">updated_at </text>
<text text-anchor="start" x="187.9326" y="-486.9" font-family="Arial" font-size="14.00" fill="#666666">[timestamp with time zone]</text>
<polygon fill="none" stroke="#000000" points="107,-445.5 107,-475.5 362,-475.5 362,-445.5 107,-445.5"/>
<text text-anchor="start" x="114" y="-456.9" font-family="Arial" font-size="14.00" fill="#000000">article_id </text>
<text text-anchor="start" x="173.892" y="-456.9" font-family="Arial" font-size="14.00" fill="#666666">[uuid]</text>
</g>
<!-- public.article_tags&#45;&gt;public.articles -->
<g id="edge1" class="edge">
<title>public.article_tags:article_id&#45;&gt;public.articles:id</title>
<path fill="none" stroke="#000000" d="M371.6964,-457.8321C383.5432,-449.1433 373.2311,-421.1723 362,-403 343.1909,-372.5662 308.8091,-397.4338 290,-367 267.452,-330.5165 247.1111,-270.5 290,-270.5"/>
<polygon fill="#000000" stroke="#000000" points="371.6417,-457.8471 360.8062,-456.1612 366.8209,-459.1736 362,-460.5 362,-460.5 362,-460.5 366.8209,-459.1736 363.1938,-464.8388 371.6417,-457.8471 371.6417,-457.8471"/>
<text text-anchor="start" x="6.8365" y="-470.5" font-family="Arial" font-size="10.00" fill="#000000">FOREIGN KEY (article_id) REFERENCES articles(id) ON DELETE CASCADE</text>
</g>
<!-- public.read_articles -->
<g id="node3" class="node">
<title>public.read_articles</title>
<polygon fill="#efefef" stroke="transparent" points="466,-580.5 466,-615.5 732,-615.5 732,-580.5 466,-580.5"/>
<polygon fill="none" stroke="#000000" points="466,-580.5 466,-615.5 732,-615.5 732,-580.5 466,-580.5"/>
<text text-anchor="start" x="472.8624" y="-593.3" font-family="Arial Bold" font-size="18.00" fill="#000000">public.read_articles</text>
<text text-anchor="start" x="627.8838" y="-593.3" font-family="Arial" font-size="14.00" fill="#000000"> </text>
<text text-anchor="start" x="631.7744" y="-593.3" font-family="Arial" font-size="14.00" fill="#666666">[BASE TABLE]</text>
<polygon fill="none" stroke="#000000" points="466,-550.5 466,-580.5 732,-580.5 732,-550.5 466,-550.5"/>
<text text-anchor="start" x="473" y="-561.9" font-family="Arial" font-size="14.00" fill="#000000">id </text>
<text text-anchor="start" x="487.7798" y="-561.9" font-family="Arial" font-size="14.00" fill="#666666">[uuid]</text>
<polygon fill="none" stroke="#000000" points="466,-520.5 466,-550.5 732,-550.5 732,-520.5 466,-520.5"/>
<text text-anchor="start" x="473" y="-531.9" font-family="Arial" font-size="14.00" fill="#000000">user_id </text>
<text text-anchor="start" x="522.7882" y="-531.9" font-family="Arial" font-size="14.00" fill="#666666">[uuid]</text>
<polygon fill="none" stroke="#000000" points="466,-490.5 466,-520.5 732,-520.5 732,-490.5 466,-490.5"/>
<text text-anchor="start" x="473" y="-501.9" font-family="Arial" font-size="14.00" fill="#000000">read_at </text>
<text text-anchor="start" x="524.3548" y="-501.9" font-family="Arial" font-size="14.00" fill="#666666">[timestamp with time zone]</text>
<polygon fill="none" stroke="#000000" points="466,-460.5 466,-490.5 732,-490.5 732,-460.5 466,-460.5"/>
<text text-anchor="start" x="473" y="-471.9" font-family="Arial" font-size="14.00" fill="#000000">article_id </text>
<text text-anchor="start" x="532.892" y="-471.9" font-family="Arial" font-size="14.00" fill="#666666">[uuid]</text>
</g>
<!-- public.read_articles&#45;&gt;public.articles -->
<g id="edge2" class="edge">
<title>public.read_articles:article_id&#45;&gt;public.articles:id</title>
<path fill="none" stroke="#000000" d="M456.0758,-472.6404C445.0319,-463.8419 455.986,-436.644 466,-418 485.4231,-381.8381 523.5769,-403.1619 543,-367 563.2942,-329.2164 585.8889,-270.5 543,-270.5"/>
<polygon fill="#000000" stroke="#000000" points="456.391,-472.7311 464.754,-479.8241 461.1955,-474.1156 466,-475.5 466,-475.5 466,-475.5 461.1955,-474.1156 467.246,-471.1759 456.391,-472.7311 456.391,-472.7311"/>
<text text-anchor="start" x="472.8365" y="-485.5" font-family="Arial" font-size="10.00" fill="#000000">FOREIGN KEY (article_id) REFERENCES articles(id) ON DELETE CASCADE</text>
</g>
</g>
</svg>
