<?xml version="1.0" encoding="UTF-8" standalone="no"?>
<!DOCTYPE svg PUBLIC "-//W3C//DTD SVG 1.1//EN"
 "http://www.w3.org/Graphics/SVG/1.1/DTD/svg11.dtd">
<!-- Generated by graphviz version 2.40.1 (20161225.0304)
 -->
<!-- Title: public.articles Pages: 1 -->
<svg width="837pt" height="682pt"
 viewBox="0.00 0.00 837.00 682.00" xmlns="http://www.w3.org/2000/svg" xmlns:xlink="http://www.w3.org/1999/xlink">
<g id="graph0" class="graph" transform="scale(1 1) rotate(0) translate(4 678)">
<title>public.articles</title>
<polygon fill="#ffffff" stroke="transparent" points="-4,4 -4,-678 833,-678 833,4 -4,4"/>
<!-- public.articles -->
<g id="node1" class="node">
<title>public.articles</title>
<polygon fill="#efefef" stroke="transparent" points="285,-285.5 285,-320.5 538,-320.5 538,-285.5 285,-285.5"/>
<polygon fill="none" stroke="#000000" points="285,-285.5 285,-320.5 538,-320.5 538,-285.5 285,-285.5"/>
<text text-anchor="start" x="308.3709" y="-298.3" font-family="Arial Bold" font-size="18.00" fill="#000000">public.articles</text>
<text text-anchor="start" x="417.3753" y="-298.3" font-family="Arial" font-size="14.00" fill="#000000"> </text>
<text text-anchor="start" x="421.2659" y="-298.3" font-family="Arial" font-size="14.00" fill="#666666">[BASE TABLE]</text>
<polygon fill="none" stroke="#000000" points="285,-255.5 285,-285.5 538,-285.5 538,-255.5 285,-255.5"/>
<text text-anchor="start" x="292" y="-266.9" font-family="Arial" font-size="14.00" fill="#000000">id </text>
<text text-anchor="start" x="306.7798" y="-266.9" font-family="Arial" font-size="14.00" fill="#666666">[uuid]</text>
<polygon fill="none" stroke="#000000" points="285,-225.5 285,-255.5 538,-255.5 538,-225.5 285,-225.5"/>
<text text-anchor="start" x="292" y="-236.9" font-family="Arial" font-size="14.00" fill="#000000">title </text>
<text text-anchor="start" x="317.6676" y="-236.9" font-family="Arial" font-size="14.00" fill="#666666">[varchar]</text>
<polygon fill="none" stroke="#000000" points="285,-195.5 285,-225.5 538,-225.5 538,-195.5 285,-195.5"/>
<text text-anchor="start" x="292" y="-206.9" font-family="Arial" font-size="14.00" fill="#000000">url </text>
<text text-anchor="start" x="311.4404" y="-206.9" font-family="Arial" font-size="14.00" fill="#666666">[varchar]</text>
<polygon fill="none" stroke="#000000" points="285,-165.5 285,-195.5 538,-195.5 538,-165.5 285,-165.5"/>
<text text-anchor="start" x="292" y="-176.9" font-family="Arial" font-size="14.00" fill="#000000">description </text>
<text text-anchor="start" x="363.568" y="-176.9" font-family="Arial" font-size="14.00" fill="#666666">[varchar]</text>
<polygon fill="none" stroke="#000000" points="285,-135.5 285,-165.5 538,-165.5 538,-135.5 285,-135.5"/>
<text text-anchor="start" x="292" y="-146.9" font-family="Arial" font-size="14.00" fill="#000000">thumbnail </text>
<text text-anchor="start" x="356.568" y="-146.9" font-family="Arial" font-size="14.00" fill="#666666">[varchar]</text>
<polygon fill="none" stroke="#000000" points="285,-105.5 285,-135.5 538,-135.5 538,-105.5 285,-105.5"/>
<text text-anchor="start" x="292" y="-116.9" font-family="Arial" font-size="14.00" fill="#000000">created_at </text>
<text text-anchor="start" x="362.028" y="-116.9" font-family="Arial" font-size="14.00" fill="#666666">[timestamp with time zone]</text>
<polygon fill="none" stroke="#000000" points="285,-75.5 285,-105.5 538,-105.5 538,-75.5 285,-75.5"/>
<text text-anchor="start" x="291.6915" y="-86.9" font-family="Arial" font-size="14.00" fill="#000000">updated_at </text>
<text text-anchor="start" x="365.6241" y="-86.9" font-family="Arial" font-size="14.00" fill="#666666">[timestamp with time zone]</text>
<polygon fill="none" stroke="#000000" points="285,-45.5 285,-75.5 538,-75.5 538,-45.5 285,-45.5"/>
<text text-anchor="start" x="292" y="-56.9" font-family="Arial" font-size="14.00" fill="#000000">deleted_at </text>
<text text-anchor="start" x="361.2566" y="-56.9" font-family="Arial" font-size="14.00" fill="#666666">[timestamp with time zone]</text>
<polygon fill="none" stroke="#000000" stroke-width="3" points="283,-44.5 283,-322.5 539,-322.5 539,-44.5 283,-44.5"/>
</g>
<!-- public.read_articles -->
<g id="node2" class="node">
<title>public.read_articles</title>
<polygon fill="#efefef" stroke="transparent" points="96,-580.5 96,-615.5 362,-615.5 362,-580.5 96,-580.5"/>
<polygon fill="none" stroke="#000000" points="96,-580.5 96,-615.5 362,-615.5 362,-580.5 96,-580.5"/>
<text text-anchor="start" x="102.8624" y="-593.3" font-family="Arial Bold" font-size="18.00" fill="#000000">public.read_articles</text>
<text text-anchor="start" x="257.8838" y="-593.3" font-family="Arial" font-size="14.00" fill="#000000"> </text>
<text text-anchor="start" x="261.7744" y="-593.3" font-family="Arial" font-size="14.00" fill="#666666">[BASE TABLE]</text>
<polygon fill="none" stroke="#000000" points="96,-550.5 96,-580.5 362,-580.5 362,-550.5 96,-550.5"/>
<text text-anchor="start" x="103" y="-561.9" font-family="Arial" font-size="14.00" fill="#000000">id </text>
<text text-anchor="start" x="117.7798" y="-561.9" font-family="Arial" font-size="14.00" fill="#666666">[uuid]</text>
<polygon fill="none" stroke="#000000" points="96,-520.5 96,-550.5 362,-550.5 362,-520.5 96,-520.5"/>
<text text-anchor="start" x="103" y="-531.9" font-family="Arial" font-size="14.00" fill="#000000">user_id </text>
<text text-anchor="start" x="152.7882" y="-531.9" font-family="Arial" font-size="14.00" fill="#666666">[uuid]</text>
<polygon fill="none" stroke="#000000" points="96,-490.5 96,-520.5 362,-520.5 362,-490.5 96,-490.5"/>
<text text-anchor="start" x="103" y="-501.9" font-family="Arial" font-size="14.00" fill="#000000">read_at </text>
<text text-anchor="start" x="154.3548" y="-501.9" font-family="Arial" font-size="14.00" fill="#666666">[timestamp with time zone]</text>
<polygon fill="none" stroke="#000000" points="96,-460.5 96,-490.5 362,-490.5 362,-460.5 96,-460.5"/>
<text text-anchor="start" x="103" y="-471.9" font-family="Arial" font-size="14.00" fill="#000000">article_id </text>
<text text-anchor="start" x="162.892" y="-471.9" font-family="Arial" font-size="14.00" fill="#666666">[uuid]</text>
</g>
<!-- public.read_articles&#45;&gt;public.articles -->
<g id="edge1" class="edge">
<title>public.read_articles:article_id&#45;&gt;public.articles:id</title>
<path fill="none" stroke="#000000" d="M371.9242,-472.6404C382.9681,-463.8419 372.014,-436.644 362,-418 342.5769,-381.8381 304.4231,-403.1619 285,-367 264.7058,-329.2164 242.1111,-270.5 285,-270.5"/>
<polygon fill="#000000" stroke="#000000" points="371.609,-472.7311 360.754,-471.1759 366.8045,-474.1156 362,-475.5 362,-475.5 362,-475.5 366.8045,-474.1156 363.246,-479.8241 371.609,-472.7311 371.609,-472.7311"/>
<text text-anchor="start" x="6.8365" y="-485.5" font-family="Arial" font-size="10.00" fill="#000000">FOREIGN KEY (article_id) REFERENCES articles(id) ON DELETE CASCADE</text>
</g>
<!-- public.article_tags -->
<g id="node3" class="node">
<title>public.article_tags</title>
<polygon fill="#efefef" stroke="transparent" points="467,-595.5 467,-630.5 722,-630.5 722,-595.5 467,-595.5"/>
<polygon fill="none" stroke="#000000" points="467,-595.5 467,-630.5 722,-630.5 722,-595.5 467,-595.5"/>
<text text-anchor="start" x="473.8605" y="-608.3" font-family="Arial Bold" font-size="18.00" fill="#000000">public.article_tags</text>
<text text-anchor="start" x="617.8857" y="-608.3" font-family="Arial" font-size="14.00" fill="#000000"> </text>
<text text-anchor="start" x="621.7763" y="-608.3" font-family="Arial" font-size="14.00" fill="#666666">[BASE TABLE]</text>
<polygon fill="none" stroke="#000000" points="467,-565.5 467,-595.5 722,-595.5 722,-565.5 467,-565.5"/>
<text text-anchor="start" x="474" y="-576.9" font-family="Arial" font-size="14.00" fill="#000000">id </text>
<text text-anchor="start" x="488.7798" y="-576.9" font-family="Arial" font-size="14.00" fill="#666666">[uuid]</text>
<polygon fill="none" stroke="#000000" points="467,-535.5 467,-565.5 722,-565.5 722,-535.5 467,-535.5"/>
<text text-anchor="start" x="474" y="-546.9" font-family="Arial" font-size="14.00" fill="#000000">tag </text>
<text text-anchor="start" x="497.3464" y="-546.9" font-family="Arial" font-size="14.00" fill="#666666">[varchar]</text>
<polygon fill="none" stroke="#000000" points="467,-505.5 467,-535.5 722,-535.5 722,-505.5 467,-505.5"/>
<text text-anchor="start" x="474" y="-516.9" font-family="Arial" font-size="14.00" fill="#000000">created_at </text>
<text text-anchor="start" x="544.028" y="-516.9" font-family="Arial" font-size="14.00" fill="#666666">[timestamp with time zone]</text>
<polygon fill="none" stroke="#000000" points="467,-475.5 467,-505.5 722,-505.5 722,-475.5 467,-475.5"/>
<text text-anchor="start" x="474" y="-486.9" font-family="Arial" font-size="14.00" fill="#000000">updated_at </text>
<text text-anchor="start" x="547.9326" y="-486.9" font-family="Arial" font-size="14.00" fill="#666666">[timestamp with time zone]</text>
<polygon fill="none" stroke="#000000" points="467,-445.5 467,-475.5 722,-475.5 722,-445.5 467,-445.5"/>
<text text-anchor="start" x="474" y="-456.9" font-family="Arial" font-size="14.00" fill="#000000">article_id </text>
<text text-anchor="start" x="533.892" y="-456.9" font-family="Arial" font-size="14.00" fill="#666666">[uuid]</text>
</g>
<!-- public.article_tags&#45;&gt;public.articles -->
<g id="edge2" class="edge">
<title>public.article_tags:article_id&#45;&gt;public.articles:id</title>
<path fill="none" stroke="#000000" d="M457.3077,-457.8347C445.4735,-449.1536 455.82,-421.2038 467,-403 485.5158,-372.8517 519.4842,-397.1483 538,-367 560.4455,-330.4533 580.8889,-270.5 538,-270.5"/>
<polygon fill="#000000" stroke="#000000" points="457.3579,-457.8484 465.8068,-464.8389 462.179,-459.1742 467,-460.5 467,-460.5 467,-460.5 462.179,-459.1742 468.1932,-456.1611 457.3579,-457.8484 457.3579,-457.8484"/>
<text text-anchor="start" x="473.8365" y="-470.5" font-family="Arial" font-size="10.00" fill="#000000">FOREIGN KEY (article_id) REFERENCES articles(id) ON DELETE CASCADE</text>
</g>
</g>
</svg>
