<?xml version="1.0" encoding="UTF-8" standalone="no"?>
<!DOCTYPE svg PUBLIC "-//W3C//DTD SVG 1.1//EN"
 "http://www.w3.org/Graphics/SVG/1.1/DTD/svg11.dtd">
<!-- Generated by graphviz version 2.40.1 (20161225.0304)
 -->
<!-- Title: public.read_articles Pages: 1 -->
<svg width="549pt" height="652pt"
 viewBox="0.00 0.00 549.00 652.00" xmlns="http://www.w3.org/2000/svg" xmlns:xlink="http://www.w3.org/1999/xlink">
<g id="graph0" class="graph" transform="scale(1 1) rotate(0) translate(4 648)">
<title>public.read_articles</title>
<polygon fill="#ffffff" stroke="transparent" points="-4,4 -4,-648 545,-648 545,4 -4,4"/>
<!-- public.read_articles -->
<g id="node1" class="node">
<title>public.read_articles</title>
<polygon fill="#efefef" stroke="transparent" points="229,-562.5 229,-597.5 495,-597.5 495,-562.5 229,-562.5"/>
<polygon fill="none" stroke="#000000" points="229,-562.5 229,-597.5 495,-597.5 495,-562.5 229,-562.5"/>
<text text-anchor="start" x="235.8624" y="-575.3" font-family="Arial Bold" font-size="18.00" fill="#000000">public.read_articles</text>
<text text-anchor="start" x="390.8838" y="-575.3" font-family="Arial" font-size="14.00" fill="#000000"> </text>
<text text-anchor="start" x="394.7744" y="-575.3" font-family="Arial" font-size="14.00" fill="#666666">[BASE TABLE]</text>
<polygon fill="none" stroke="#000000" points="229,-532.5 229,-562.5 495,-562.5 495,-532.5 229,-532.5"/>
<text text-anchor="start" x="236" y="-543.9" font-family="Arial" font-size="14.00" fill="#000000">id </text>
<text text-anchor="start" x="250.7798" y="-543.9" font-family="Arial" font-size="14.00" fill="#666666">[uuid]</text>
<polygon fill="none" stroke="#000000" points="229,-502.5 229,-532.5 495,-532.5 495,-502.5 229,-502.5"/>
<text text-anchor="start" x="236" y="-513.9" font-family="Arial" font-size="14.00" fill="#000000">user_id </text>
<text text-anchor="start" x="285.7882" y="-513.9" font-family="Arial" font-size="14.00" fill="#666666">[uuid]</text>
<polygon fill="none" stroke="#000000" points="229,-472.5 229,-502.5 495,-502.5 495,-472.5 229,-472.5"/>
<text text-anchor="start" x="236" y="-483.9" font-family="Arial" font-size="14.00" fill="#000000">read_at </text>
<text text-anchor="start" x="287.3548" y="-483.9" font-family="Arial" font-size="14.00" fill="#666666">[timestamp with time zone]</text>
<polygon fill="none" stroke="#000000" points="229,-442.5 229,-472.5 495,-472.5 495,-442.5 229,-442.5"/>
<text text-anchor="start" x="236" y="-453.9" font-family="Arial" font-size="14.00" fill="#000000">article_id </text>
<text text-anchor="start" x="295.892" y="-453.9" font-family="Arial" font-size="14.00" fill="#666666">[uuid]</text>
<polygon fill="none" stroke="#000000" stroke-width="3" points="227.5,-441.5 227.5,-599.5 496.5,-599.5 496.5,-441.5 227.5,-441.5"/>
</g>
<!-- public.articles -->
<g id="node2" class="node">
<title>public.articles</title>
<polygon fill="#efefef" stroke="transparent" points="235,-282.5 235,-317.5 488,-317.5 488,-282.5 235,-282.5"/>
<polygon fill="none" stroke="#000000" points="235,-282.5 235,-317.5 488,-317.5 488,-282.5 235,-282.5"/>
<text text-anchor="start" x="258.3709" y="-295.3" font-family="Arial Bold" font-size="18.00" fill="#000000">public.articles</text>
<text text-anchor="start" x="367.3753" y="-295.3" font-family="Arial" font-size="14.00" fill="#000000"> </text>
<text text-anchor="start" x="371.2659" y="-295.3" font-family="Arial" font-size="14.00" fill="#666666">[BASE TABLE]</text>
<polygon fill="none" stroke="#000000" points="235,-252.5 235,-282.5 488,-282.5 488,-252.5 235,-252.5"/>
<text text-anchor="start" x="242" y="-263.9" font-family="Arial" font-size="14.00" fill="#000000">id </text>
<text text-anchor="start" x="256.7798" y="-263.9" font-family="Arial" font-size="14.00" fill="#666666">[uuid]</text>
<polygon fill="none" stroke="#000000" points="235,-222.5 235,-252.5 488,-252.5 488,-222.5 235,-222.5"/>
<text text-anchor="start" x="242" y="-233.9" font-family="Arial" font-size="14.00" fill="#000000">title </text>
<text text-anchor="start" x="267.6676" y="-233.9" font-family="Arial" font-size="14.00" fill="#666666">[varchar]</text>
<polygon fill="none" stroke="#000000" points="235,-192.5 235,-222.5 488,-222.5 488,-192.5 235,-192.5"/>
<text text-anchor="start" x="242" y="-203.9" font-family="Arial" font-size="14.00" fill="#000000">url </text>
<text text-anchor="start" x="261.4404" y="-203.9" font-family="Arial" font-size="14.00" fill="#666666">[varchar]</text>
<polygon fill="none" stroke="#000000" points="235,-162.5 235,-192.5 488,-192.5 488,-162.5 235,-162.5"/>
<text text-anchor="start" x="242" y="-173.9" font-family="Arial" font-size="14.00" fill="#000000">description </text>
<text text-anchor="start" x="313.568" y="-173.9" font-family="Arial" font-size="14.00" fill="#666666">[varchar]</text>
<polygon fill="none" stroke="#000000" points="235,-132.5 235,-162.5 488,-162.5 488,-132.5 235,-132.5"/>
<text text-anchor="start" x="242" y="-143.9" font-family="Arial" font-size="14.00" fill="#000000">thumbnail </text>
<text text-anchor="start" x="306.568" y="-143.9" font-family="Arial" font-size="14.00" fill="#666666">[varchar]</text>
<polygon fill="none" stroke="#000000" points="235,-102.5 235,-132.5 488,-132.5 488,-102.5 235,-102.5"/>
<text text-anchor="start" x="242" y="-113.9" font-family="Arial" font-size="14.00" fill="#000000">created_at </text>
<text text-anchor="start" x="312.028" y="-113.9" font-family="Arial" font-size="14.00" fill="#666666">[timestamp with time zone]</text>
<polygon fill="none" stroke="#000000" points="235,-72.5 235,-102.5 488,-102.5 488,-72.5 235,-72.5"/>
<text text-anchor="start" x="241.6915" y="-83.9" font-family="Arial" font-size="14.00" fill="#000000">updated_at </text>
<text text-anchor="start" x="315.6241" y="-83.9" font-family="Arial" font-size="14.00" fill="#666666">[timestamp with time zone]</text>
<polygon fill="none" stroke="#000000" points="235,-42.5 235,-72.5 488,-72.5 488,-42.5 235,-42.5"/>
<text text-anchor="start" x="242" y="-53.9" font-family="Arial" font-size="14.00" fill="#000000">deleted_at </text>
<text text-anchor="start" x="311.2566" y="-53.9" font-family="Arial" font-size="14.00" fill="#666666">[timestamp with time zone]</text>
</g>
<!-- public.read_articles&#45;&gt;public.articles -->
<g id="edge1" class="edge">
<title>public.read_articles:article_id&#45;&gt;public.articles:id</title>
<path fill="none" stroke="#000000" d="M362.8189,-432.5144C372.1086,-380.2882 457.8665,-416.3789 488,-361 507.8618,-324.4983 529.5556,-267.5 488,-267.5"/>
<polygon fill="#000000" stroke="#000000" points="362.8174,-432.5335 357.5151,-442.1322 362.4087,-437.5167 362,-442.5 362,-442.5 362,-442.5 362.4087,-437.5167 366.4849,-442.8678 362.8174,-432.5335 362.8174,-432.5335"/>
<text text-anchor="start" x="6.8365" y="-452.5" font-family="Arial" font-size="10.00" fill="#000000">FOREIGN KEY (article_id) REFERENCES articles(id) ON DELETE CASCADE</text>
</g>
</g>
</svg>
