<?xml version="1.0" encoding="UTF-8" standalone="no"?>
<!DOCTYPE svg PUBLIC "-//W3C//DTD SVG 1.1//EN"
 "http://www.w3.org/Graphics/SVG/1.1/DTD/svg11.dtd">
<!-- Generated by graphviz version 2.40.1 (20161225.0304)
 -->
<!-- Title: public.auths Pages: 1 -->
<svg width="529pt" height="592pt"
 viewBox="0.00 0.00 528.50 592.00" xmlns="http://www.w3.org/2000/svg" xmlns:xlink="http://www.w3.org/1999/xlink">
<g id="graph0" class="graph" transform="scale(1 1) rotate(0) translate(4 588)">
<title>public.auths</title>
<polygon fill="#ffffff" stroke="transparent" points="-4,4 -4,-588 524.5,-588 524.5,4 -4,4"/>
<!-- public.auths -->
<g id="node1" class="node">
<title>public.auths</title>
<polygon fill="#efefef" stroke="transparent" points="46.5,-502.5 46.5,-537.5 299.5,-537.5 299.5,-502.5 46.5,-502.5"/>
<polygon fill="none" stroke="#000000" points="46.5,-502.5 46.5,-537.5 299.5,-537.5 299.5,-502.5 46.5,-502.5"/>
<text text-anchor="start" x="76.3581" y="-515.3" font-family="Arial Bold" font-size="18.00" fill="#000000">public.auths</text>
<text text-anchor="start" x="172.3881" y="-515.3" font-family="Arial" font-size="14.00" fill="#000000"> </text>
<text text-anchor="start" x="176.2787" y="-515.3" font-family="Arial" font-size="14.00" fill="#666666">[BASE TABLE]</text>
<polygon fill="none" stroke="#000000" points="46.5,-472.5 46.5,-502.5 299.5,-502.5 299.5,-472.5 46.5,-472.5"/>
<text text-anchor="start" x="53.5" y="-483.9" font-family="Arial" font-size="14.00" fill="#000000">id </text>
<text text-anchor="start" x="68.2798" y="-483.9" font-family="Arial" font-size="14.00" fill="#666666">[uuid]</text>
<polygon fill="none" stroke="#000000" points="46.5,-442.5 46.5,-472.5 299.5,-472.5 299.5,-442.5 46.5,-442.5"/>
<text text-anchor="start" x="53.5" y="-453.9" font-family="Arial" font-size="14.00" fill="#000000">login_id </text>
<text text-anchor="start" x="105.6234" y="-453.9" font-family="Arial" font-size="14.00" fill="#666666">[varchar]</text>
<polygon fill="none" stroke="#000000" points="46.5,-412.5 46.5,-442.5 299.5,-442.5 299.5,-412.5 46.5,-412.5"/>
<text text-anchor="start" x="53.5" y="-423.9" font-family="Arial" font-size="14.00" fill="#000000">email </text>
<text text-anchor="start" x="90.8296" y="-423.9" font-family="Arial" font-size="14.00" fill="#666666">[varchar]</text>
<polygon fill="none" stroke="#000000" points="46.5,-382.5 46.5,-412.5 299.5,-412.5 299.5,-382.5 46.5,-382.5"/>
<text text-anchor="start" x="53.5" y="-393.9" font-family="Arial" font-size="14.00" fill="#000000">password </text>
<text text-anchor="start" x="117.2882" y="-393.9" font-family="Arial" font-size="14.00" fill="#666666">[varchar]</text>
<polygon fill="none" stroke="#000000" points="46.5,-352.5 46.5,-382.5 299.5,-382.5 299.5,-352.5 46.5,-352.5"/>
<text text-anchor="start" x="53.5" y="-363.9" font-family="Arial" font-size="14.00" fill="#000000">created_at </text>
<text text-anchor="start" x="123.528" y="-363.9" font-family="Arial" font-size="14.00" fill="#666666">[timestamp with time zone]</text>
<polygon fill="none" stroke="#000000" points="46.5,-322.5 46.5,-352.5 299.5,-352.5 299.5,-322.5 46.5,-322.5"/>
<text text-anchor="start" x="53.1915" y="-333.9" font-family="Arial" font-size="14.00" fill="#000000">updated_at </text>
<text text-anchor="start" x="127.1241" y="-333.9" font-family="Arial" font-size="14.00" fill="#666666">[timestamp with time zone]</text>
<polygon fill="none" stroke="#000000" points="46.5,-292.5 46.5,-322.5 299.5,-322.5 299.5,-292.5 46.5,-292.5"/>
<text text-anchor="start" x="53.5" y="-303.9" font-family="Arial" font-size="14.00" fill="#000000">user_id </text>
<text text-anchor="start" x="103.2882" y="-303.9" font-family="Arial" font-size="14.00" fill="#666666">[uuid]</text>
<polygon fill="none" stroke="#000000" stroke-width="3" points="44.5,-291.5 44.5,-539.5 300.5,-539.5 300.5,-291.5 44.5,-291.5"/>
</g>
<!-- public.users -->
<g id="node2" class="node">
<title>public.users</title>
<polygon fill="#efefef" stroke="transparent" points="46.5,-132.5 46.5,-167.5 299.5,-167.5 299.5,-132.5 46.5,-132.5"/>
<polygon fill="none" stroke="#000000" points="46.5,-132.5 46.5,-167.5 299.5,-167.5 299.5,-132.5 46.5,-132.5"/>
<text text-anchor="start" x="76.3662" y="-145.3" font-family="Arial Bold" font-size="18.00" fill="#000000">public.users</text>
<text text-anchor="start" x="172.38" y="-145.3" font-family="Arial" font-size="14.00" fill="#000000"> </text>
<text text-anchor="start" x="176.2706" y="-145.3" font-family="Arial" font-size="14.00" fill="#666666">[BASE TABLE]</text>
<polygon fill="none" stroke="#000000" points="46.5,-102.5 46.5,-132.5 299.5,-132.5 299.5,-102.5 46.5,-102.5"/>
<text text-anchor="start" x="53.5" y="-113.9" font-family="Arial" font-size="14.00" fill="#000000">id </text>
<text text-anchor="start" x="68.2798" y="-113.9" font-family="Arial" font-size="14.00" fill="#666666">[uuid]</text>
<polygon fill="none" stroke="#000000" points="46.5,-72.5 46.5,-102.5 299.5,-102.5 299.5,-72.5 46.5,-72.5"/>
<text text-anchor="start" x="53.5" y="-83.9" font-family="Arial" font-size="14.00" fill="#000000">created_at </text>
<text text-anchor="start" x="123.528" y="-83.9" font-family="Arial" font-size="14.00" fill="#666666">[timestamp with time zone]</text>
<polygon fill="none" stroke="#000000" points="46.5,-42.5 46.5,-72.5 299.5,-72.5 299.5,-42.5 46.5,-42.5"/>
<text text-anchor="start" x="53.1915" y="-53.9" font-family="Arial" font-size="14.00" fill="#000000">updated_at </text>
<text text-anchor="start" x="127.1241" y="-53.9" font-family="Arial" font-size="14.00" fill="#666666">[timestamp with time zone]</text>
</g>
<!-- public.auths&#45;&gt;public.users -->
<g id="edge1" class="edge">
<title>public.auths:user_id&#45;&gt;public.users:id</title>
<path fill="none" stroke="#000000" d="M172.6749,-282.4619C163.3145,-229.9823 76.9025,-266.6345 46.5,-211 26.5726,-174.5341 4.9444,-117.5 46.5,-117.5"/>
<polygon fill="#000000" stroke="#000000" points="172.6807,-282.5336 169.0151,-292.8687 173.0903,-287.5168 173.5,-292.5 173.5,-292.5 173.5,-292.5 173.0903,-287.5168 177.9849,-292.1313 172.6807,-282.5336 172.6807,-282.5336"/>
<text text-anchor="start" x="180.5535" y="-302.5" font-family="Arial" font-size="10.00" fill="#000000">FOREIGN KEY (user_id) REFERENCES users(id) ON DELETE CASCADE</text>
</g>
</g>
</svg>
