<?xml version="1.0" encoding="UTF-8" standalone="no"?>
<!DOCTYPE svg PUBLIC "-//W3C//DTD SVG 1.1//EN"
 "http://www.w3.org/Graphics/SVG/1.1/DTD/svg11.dtd">
<!-- Generated by graphviz version 2.40.1 (20161225.0304)
 -->
<!-- Title: public.users Pages: 1 -->
<svg width="529pt" height="592pt"
 viewBox="0.00 0.00 528.50 592.00" xmlns="http://www.w3.org/2000/svg" xmlns:xlink="http://www.w3.org/1999/xlink">
<g id="graph0" class="graph" transform="scale(1 1) rotate(0) translate(4 588)">
<title>public.users</title>
<polygon fill="#ffffff" stroke="transparent" points="-4,4 -4,-588 524.5,-588 524.5,4 -4,4"/>
<!-- public.users -->
<g id="node1" class="node">
<title>public.users</title>
<polygon fill="#efefef" stroke="transparent" points="46.5,-135.5 46.5,-170.5 299.5,-170.5 299.5,-135.5 46.5,-135.5"/>
<polygon fill="none" stroke="#000000" points="46.5,-135.5 46.5,-170.5 299.5,-170.5 299.5,-135.5 46.5,-135.5"/>
<text text-anchor="start" x="76.3662" y="-148.3" font-family="Arial Bold" font-size="18.00" fill="#000000">public.users</text>
<text text-anchor="start" x="172.38" y="-148.3" font-family="Arial" font-size="14.00" fill="#000000"> </text>
<text text-anchor="start" x="176.2706" y="-148.3" font-family="Arial" font-size="14.00" fill="#666666">[BASE TABLE]</text>
<polygon fill="none" stroke="#000000" points="46.5,-105.5 46.5,-135.5 299.5,-135.5 299.5,-105.5 46.5,-105.5"/>
<text text-anchor="start" x="53.5" y="-116.9" font-family="Arial" font-size="14.00" fill="#000000">id </text>
<text text-anchor="start" x="68.2798" y="-116.9" font-family="Arial" font-size="14.00" fill="#666666">[uuid]</text>
<polygon fill="none" stroke="#000000" points="46.5,-75.5 46.5,-105.5 299.5,-105.5 299.5,-75.5 46.5,-75.5"/>
<text text-anchor="start" x="53.5" y="-86.9" font-family="Arial" font-size="14.00" fill="#000000">created_at </text>
<text text-anchor="start" x="123.528" y="-86.9" font-family="Arial" font-size="14.00" fill="#666666">[timestamp with time zone]</text>
<polygon fill="none" stroke="#000000" points="46.5,-45.5 46.5,-75.5 299.5,-75.5 299.5,-45.5 46.5,-45.5"/>
<text text-anchor="start" x="53.1915" y="-56.9" font-family="Arial" font-size="14.00" fill="#000000">updated_at </text>
<text text-anchor="start" x="127.1241" y="-56.9" font-family="Arial" font-size="14.00" fill="#666666">[timestamp with time zone]</text>
<polygon fill="none" stroke="#000000" stroke-width="3" points="44.5,-44.5 44.5,-172.5 300.5,-172.5 300.5,-44.5 44.5,-44.5"/>
</g>
<!-- public.auths -->
<g id="node2" class="node">
<title>public.auths</title>
<polygon fill="#efefef" stroke="transparent" points="46.5,-505.5 46.5,-540.5 299.5,-540.5 299.5,-505.5 46.5,-505.5"/>
<polygon fill="none" stroke="#000000" points="46.5,-505.5 46.5,-540.5 299.5,-540.5 299.5,-505.5 46.5,-505.5"/>
<text text-anchor="start" x="76.3581" y="-518.3" font-family="Arial Bold" font-size="18.00" fill="#000000">public.auths</text>
<text text-anchor="start" x="172.3881" y="-518.3" font-family="Arial" font-size="14.00" fill="#000000"> </text>
<text text-anchor="start" x="176.2787" y="-518.3" font-family="Arial" font-size="14.00" fill="#666666">[BASE TABLE]</text>
<polygon fill="none" stroke="#000000" points="46.5,-475.5 46.5,-505.5 299.5,-505.5 299.5,-475.5 46.5,-475.5"/>
<text text-anchor="start" x="53.5" y="-486.9" font-family="Arial" font-size="14.00" fill="#000000">id </text>
<text text-anchor="start" x="68.2798" y="-486.9" font-family="Arial" font-size="14.00" fill="#666666">[uuid]</text>
<polygon fill="none" stroke="#000000" points="46.5,-445.5 46.5,-475.5 299.5,-475.5 299.5,-445.5 46.5,-445.5"/>
<text text-anchor="start" x="53.5" y="-456.9" font-family="Arial" font-size="14.00" fill="#000000">login_id </text>
<text text-anchor="start" x="105.6234" y="-456.9" font-family="Arial" font-size="14.00" fill="#666666">[varchar]</text>
<polygon fill="none" stroke="#000000" points="46.5,-415.5 46.5,-445.5 299.5,-445.5 299.5,-415.5 46.5,-415.5"/>
<text text-anchor="start" x="53.5" y="-426.9" font-family="Arial" font-size="14.00" fill="#000000">email </text>
<text text-anchor="start" x="90.8296" y="-426.9" font-family="Arial" font-size="14.00" fill="#666666">[varchar]</text>
<polygon fill="none" stroke="#000000" points="46.5,-385.5 46.5,-415.5 299.5,-415.5 299.5,-385.5 46.5,-385.5"/>
<text text-anchor="start" x="53.5" y="-396.9" font-family="Arial" font-size="14.00" fill="#000000">password </text>
<text text-anchor="start" x="117.2882" y="-396.9" font-family="Arial" font-size="14.00" fill="#666666">[varchar]</text>
<polygon fill="none" stroke="#000000" points="46.5,-355.5 46.5,-385.5 299.5,-385.5 299.5,-355.5 46.5,-355.5"/>
<text text-anchor="start" x="53.5" y="-366.9" font-family="Arial" font-size="14.00" fill="#000000">created_at </text>
<text text-anchor="start" x="123.528" y="-366.9" font-family="Arial" font-size="14.00" fill="#666666">[timestamp with time zone]</text>
<polygon fill="none" stroke="#000000" points="46.5,-325.5 46.5,-355.5 299.5,-355.5 299.5,-325.5 46.5,-325.5"/>
<text text-anchor="start" x="53.1915" y="-336.9" font-family="Arial" font-size="14.00" fill="#000000">updated_at </text>
<text text-anchor="start" x="127.1241" y="-336.9" font-family="Arial" font-size="14.00" fill="#666666">[timestamp with time zone]</text>
<polygon fill="none" stroke="#000000" points="46.5,-295.5 46.5,-325.5 299.5,-325.5 299.5,-295.5 46.5,-295.5"/>
<text text-anchor="start" x="53.5" y="-306.9" font-family="Arial" font-size="14.00" fill="#000000">user_id </text>
<text text-anchor="start" x="103.2882" y="-306.9" font-family="Arial" font-size="14.00" fill="#666666">[uuid]</text>
</g>
<!-- public.auths&#45;&gt;public.users -->
<g id="edge1" class="edge">
<title>public.auths:user_id&#45;&gt;public.users:id</title>
<path fill="none" stroke="#000000" d="M172.6172,-285.2649C162.9737,-234.0004 76.9816,-271.6755 46.5,-217 25.6157,-179.5393 3.6111,-120.5 46.5,-120.5"/>
<polygon fill="#000000" stroke="#000000" points="172.6406,-285.537 169.0166,-295.8867 173.0703,-290.5185 173.5,-295.5 173.5,-295.5 173.5,-295.5 173.0703,-290.5185 177.9834,-295.1133 172.6406,-285.537 172.6406,-285.537"/>
<text text-anchor="start" x="180.5535" y="-305.5" font-family="Arial" font-size="10.00" fill="#000000">FOREIGN KEY (user_id) REFERENCES users(id) ON DELETE CASCADE</text>
</g>
</g>
</svg>
