<?xml version="1.0" encoding="UTF-8" standalone="no"?>
<!DOCTYPE svg PUBLIC "-//W3C//DTD SVG 1.1//EN"
 "http://www.w3.org/Graphics/SVG/1.1/DTD/svg11.dtd">
<!-- Generated by graphviz version 2.40.1 (20161225.0304)
 -->
<!-- Title: postgres Pages: 1 -->
<svg width="1170pt" height="676pt"
 viewBox="0.00 0.00 1169.50 676.00" xmlns="http://www.w3.org/2000/svg" xmlns:xlink="http://www.w3.org/1999/xlink">
<g id="graph0" class="graph" transform="scale(1 1) rotate(0) translate(4 672)">
<title>postgres</title>
<polygon fill="#ffffff" stroke="transparent" points="-4,4 -4,-672 1165.5,-672 1165.5,4 -4,4"/>
<!-- public.articles -->
<g id="node1" class="node">
<title>public.articles</title>
<polygon fill="#efefef" stroke="transparent" points="285,-282.5 285,-317.5 538,-317.5 538,-282.5 285,-282.5"/>
<polygon fill="none" stroke="#000000" points="285,-282.5 285,-317.5 538,-317.5 538,-282.5 285,-282.5"/>
<text text-anchor="start" x="308.3709" y="-295.3" font-family="Arial Bold" font-size="18.00" fill="#000000">public.articles</text>
<text text-anchor="start" x="417.3753" y="-295.3" font-family="Arial" font-size="14.00" fill="#000000"> </text>
<text text-anchor="start" x="421.2659" y="-295.3" font-family="Arial" font-size="14.00" fill="#666666">[BASE TABLE]</text>
<polygon fill="none" stroke="#000000" points="285,-252.5 285,-282.5 538,-282.5 538,-252.5 285,-252.5"/>
<text text-anchor="start" x="292" y="-263.9" font-family="Arial" font-size="14.00" fill="#000000">id </text>
<text text-anchor="start" x="306.7798" y="-263.9" font-family="Arial" font-size="14.00" fill="#666666">[uuid]</text>
<polygon fill="none" stroke="#000000" points="285,-222.5 285,-252.5 538,-252.5 538,-222.5 285,-222.5"/>
<text text-anchor="start" x="292" y="-233.9" font-family="Arial" font-size="14.00" fill="#000000">title </text>
<text text-anchor="start" x="317.6676" y="-233.9" font-family="Arial" font-size="14.00" fill="#666666">[varchar]</text>
<polygon fill="none" stroke="#000000" points="285,-192.5 285,-222.5 538,-222.5 538,-192.5 285,-192.5"/>
<text text-anchor="start" x="292" y="-203.9" font-family="Arial" font-size="14.00" fill="#000000">url </text>
<text text-anchor="start" x="311.4404" y="-203.9" font-family="Arial" font-size="14.00" fill="#666666">[varchar]</text>
<polygon fill="none" stroke="#000000" points="285,-162.5 285,-192.5 538,-192.5 538,-162.5 285,-162.5"/>
<text text-anchor="start" x="292" y="-173.9" font-family="Arial" font-size="14.00" fill="#000000">description </text>
<text text-anchor="start" x="363.568" y="-173.9" font-family="Arial" font-size="14.00" fill="#666666">[varchar]</text>
<polygon fill="none" stroke="#000000" points="285,-132.5 285,-162.5 538,-162.5 538,-132.5 285,-132.5"/>
<text text-anchor="start" x="292" y="-143.9" font-family="Arial" font-size="14.00" fill="#000000">thumbnail </text>
<text text-anchor="start" x="356.568" y="-143.9" font-family="Arial" font-size="14.00" fill="#666666">[varchar]</text>
<polygon fill="none" stroke="#000000" points="285,-102.5 285,-132.5 538,-132.5 538,-102.5 285,-102.5"/>
<text text-anchor="start" x="292" y="-113.9" font-family="Arial" font-size="14.00" fill="#000000">created_at </text>
<text text-anchor="start" x="362.028" y="-113.9" font-family="Arial" font-size="14.00" fill="#666666">[timestamp with time zone]</text>
<polygon fill="none" stroke="#000000" points="285,-72.5 285,-102.5 538,-102.5 538,-72.5 285,-72.5"/>
<text text-anchor="start" x="291.6915" y="-83.9" font-family="Arial" font-size="14.00" fill="#000000">updated_at </text>
<text text-anchor="start" x="365.6241" y="-83.9" font-family="Arial" font-size="14.00" fill="#666666">[timestamp with time zone]</text>
<polygon fill="none" stroke="#000000" points="285,-42.5 285,-72.5 538,-72.5 538,-42.5 285,-42.5"/>
<text text-anchor="start" x="292" y="-53.9" font-family="Arial" font-size="14.00" fill="#000000">deleted_at </text>
<text text-anchor="start" x="361.2566" y="-53.9" font-family="Arial" font-size="14.00" fill="#666666">[timestamp with time zone]</text>
</g>
<!-- public.users -->
<g id="node2" class="node">
<title>public.users</title>
<polygon fill="#efefef" stroke="transparent" points="826,-574.5 826,-609.5 1119,-609.5 1119,-574.5 826,-574.5"/>
<polygon fill="none" stroke="#000000" points="826,-574.5 826,-609.5 1119,-609.5 1119,-574.5 826,-574.5"/>
<text text-anchor="start" x="875.8662" y="-587.3" font-family="Arial Bold" font-size="18.00" fill="#000000">public.users</text>
<text text-anchor="start" x="971.88" y="-587.3" font-family="Arial" font-size="14.00" fill="#000000"> </text>
<text text-anchor="start" x="975.7706" y="-587.3" font-family="Arial" font-size="14.00" fill="#666666">[BASE TABLE]</text>
<polygon fill="none" stroke="#000000" points="826,-544.5 826,-574.5 1119,-574.5 1119,-544.5 826,-544.5"/>
<text text-anchor="start" x="833" y="-555.9" font-family="Arial" font-size="14.00" fill="#000000">id </text>
<text text-anchor="start" x="847.7798" y="-555.9" font-family="Arial" font-size="14.00" fill="#666666">[uuid]</text>
<polygon fill="none" stroke="#000000" points="826,-514.5 826,-544.5 1119,-544.5 1119,-514.5 826,-514.5"/>
<text text-anchor="start" x="832.8577" y="-525.9" font-family="Arial" font-size="14.00" fill="#000000">last_logged_in_at </text>
<text text-anchor="start" x="946.4579" y="-525.9" font-family="Arial" font-size="14.00" fill="#666666">[timestamp with time zone]</text>
<polygon fill="none" stroke="#000000" points="826,-484.5 826,-514.5 1119,-514.5 1119,-484.5 826,-484.5"/>
<text text-anchor="start" x="833" y="-495.9" font-family="Arial" font-size="14.00" fill="#000000">created_at </text>
<text text-anchor="start" x="903.028" y="-495.9" font-family="Arial" font-size="14.00" fill="#666666">[timestamp with time zone]</text>
<polygon fill="none" stroke="#000000" points="826,-454.5 826,-484.5 1119,-484.5 1119,-454.5 826,-454.5"/>
<text text-anchor="start" x="833" y="-465.9" font-family="Arial" font-size="14.00" fill="#000000">updated_at </text>
<text text-anchor="start" x="906.9326" y="-465.9" font-family="Arial" font-size="14.00" fill="#666666">[timestamp with time zone]</text>
</g>
<!-- public.read_articles -->
<g id="node3" class="node">
<title>public.read_articles</title>
<polygon fill="#efefef" stroke="transparent" points="96,-574.5 96,-609.5 362,-609.5 362,-574.5 96,-574.5"/>
<polygon fill="none" stroke="#000000" points="96,-574.5 96,-609.5 362,-609.5 362,-574.5 96,-574.5"/>
<text text-anchor="start" x="102.8624" y="-587.3" font-family="Arial Bold" font-size="18.00" fill="#000000">public.read_articles</text>
<text text-anchor="start" x="257.8838" y="-587.3" font-family="Arial" font-size="14.00" fill="#000000"> </text>
<text text-anchor="start" x="261.7744" y="-587.3" font-family="Arial" font-size="14.00" fill="#666666">[BASE TABLE]</text>
<polygon fill="none" stroke="#000000" points="96,-544.5 96,-574.5 362,-574.5 362,-544.5 96,-544.5"/>
<text text-anchor="start" x="103" y="-555.9" font-family="Arial" font-size="14.00" fill="#000000">id </text>
<text text-anchor="start" x="117.7798" y="-555.9" font-family="Arial" font-size="14.00" fill="#666666">[uuid]</text>
<polygon fill="none" stroke="#000000" points="96,-514.5 96,-544.5 362,-544.5 362,-514.5 96,-514.5"/>
<text text-anchor="start" x="103" y="-525.9" font-family="Arial" font-size="14.00" fill="#000000">user_id </text>
<text text-anchor="start" x="152.7882" y="-525.9" font-family="Arial" font-size="14.00" fill="#666666">[uuid]</text>
<polygon fill="none" stroke="#000000" points="96,-484.5 96,-514.5 362,-514.5 362,-484.5 96,-484.5"/>
<text text-anchor="start" x="103" y="-495.9" font-family="Arial" font-size="14.00" fill="#000000">read_at </text>
<text text-anchor="start" x="154.3548" y="-495.9" font-family="Arial" font-size="14.00" fill="#666666">[timestamp with time zone]</text>
<polygon fill="none" stroke="#000000" points="96,-454.5 96,-484.5 362,-484.5 362,-454.5 96,-454.5"/>
<text text-anchor="start" x="103" y="-465.9" font-family="Arial" font-size="14.00" fill="#000000">article_id </text>
<text text-anchor="start" x="162.892" y="-465.9" font-family="Arial" font-size="14.00" fill="#666666">[uuid]</text>
</g>
<!-- public.read_articles&#45;&gt;public.articles -->
<g id="edge1" class="edge">
<title>public.read_articles:article_id&#45;&gt;public.articles:id</title>
<path fill="none" stroke="#000000" d="M371.9242,-466.6404C382.9681,-457.8419 372.014,-430.644 362,-412 342.5769,-375.8381 304.4231,-397.1619 285,-361 265.3367,-324.391 243.4444,-267.5 285,-267.5"/>
<polygon fill="#000000" stroke="#000000" points="371.609,-466.7311 360.754,-465.1759 366.8045,-468.1156 362,-469.5 362,-469.5 362,-469.5 366.8045,-468.1156 363.246,-473.8241 371.609,-466.7311 371.609,-466.7311"/>
<text text-anchor="start" x="6.8365" y="-479.5" font-family="Arial" font-size="10.00" fill="#000000">FOREIGN KEY (article_id) REFERENCES articles(id) ON DELETE CASCADE</text>
</g>
<!-- public.article_tags -->
<g id="node4" class="node">
<title>public.article_tags</title>
<polygon fill="#efefef" stroke="transparent" points="467,-589.5 467,-624.5 722,-624.5 722,-589.5 467,-589.5"/>
<polygon fill="none" stroke="#000000" points="467,-589.5 467,-624.5 722,-624.5 722,-589.5 467,-589.5"/>
<text text-anchor="start" x="473.8605" y="-602.3" font-family="Arial Bold" font-size="18.00" fill="#000000">public.article_tags</text>
<text text-anchor="start" x="617.8857" y="-602.3" font-family="Arial" font-size="14.00" fill="#000000"> </text>
<text text-anchor="start" x="621.7763" y="-602.3" font-family="Arial" font-size="14.00" fill="#666666">[BASE TABLE]</text>
<polygon fill="none" stroke="#000000" points="467,-559.5 467,-589.5 722,-589.5 722,-559.5 467,-559.5"/>
<text text-anchor="start" x="474" y="-570.9" font-family="Arial" font-size="14.00" fill="#000000">id </text>
<text text-anchor="start" x="488.7798" y="-570.9" font-family="Arial" font-size="14.00" fill="#666666">[uuid]</text>
<polygon fill="none" stroke="#000000" points="467,-529.5 467,-559.5 722,-559.5 722,-529.5 467,-529.5"/>
<text text-anchor="start" x="474" y="-540.9" font-family="Arial" font-size="14.00" fill="#000000">tag </text>
<text text-anchor="start" x="497.3464" y="-540.9" font-family="Arial" font-size="14.00" fill="#666666">[varchar]</text>
<polygon fill="none" stroke="#000000" points="467,-499.5 467,-529.5 722,-529.5 722,-499.5 467,-499.5"/>
<text text-anchor="start" x="474" y="-510.9" font-family="Arial" font-size="14.00" fill="#000000">created_at </text>
<text text-anchor="start" x="544.028" y="-510.9" font-family="Arial" font-size="14.00" fill="#666666">[timestamp with time zone]</text>
<polygon fill="none" stroke="#000000" points="467,-469.5 467,-499.5 722,-499.5 722,-469.5 467,-469.5"/>
<text text-anchor="start" x="474" y="-480.9" font-family="Arial" font-size="14.00" fill="#000000">updated_at </text>
<text text-anchor="start" x="547.9326" y="-480.9" font-family="Arial" font-size="14.00" fill="#666666">[timestamp with time zone]</text>
<polygon fill="none" stroke="#000000" points="467,-439.5 467,-469.5 722,-469.5 722,-439.5 467,-439.5"/>
<text text-anchor="start" x="474" y="-450.9" font-family="Arial" font-size="14.00" fill="#000000">article_id </text>
<text text-anchor="start" x="533.892" y="-450.9" font-family="Arial" font-size="14.00" fill="#666666">[uuid]</text>
</g>
<!-- public.article_tags&#45;&gt;public.articles -->
<g id="edge2" class="edge">
<title>public.article_tags:article_id&#45;&gt;public.articles:id</title>
<path fill="none" stroke="#000000" d="M457.3077,-451.8347C445.4735,-443.1536 455.82,-415.2038 467,-397 485.5158,-366.8517 519.4842,-391.1483 538,-361 559.7477,-325.5895 579.5556,-267.5 538,-267.5"/>
<polygon fill="#000000" stroke="#000000" points="457.3579,-451.8484 465.8068,-458.8389 462.179,-453.1742 467,-454.5 467,-454.5 467,-454.5 462.179,-453.1742 468.1932,-450.1611 457.3579,-451.8484 457.3579,-451.8484"/>
<text text-anchor="start" x="473.8365" y="-464.5" font-family="Arial" font-size="10.00" fill="#000000">FOREIGN KEY (article_id) REFERENCES articles(id) ON DELETE CASCADE</text>
</g>
</g>
</svg>
