<?xml version="1.0" encoding="UTF-8" standalone="no"?>
<!DOCTYPE svg PUBLIC "-//W3C//DTD SVG 1.1//EN"
 "http://www.w3.org/Graphics/SVG/1.1/DTD/svg11.dtd">
<!-- Generated by graphviz version 2.40.1 (20161225.0304)
 -->
<!-- Title: postgres Pages: 1 -->
<svg width="1181pt" height="676pt"
 viewBox="0.00 0.00 1180.50 676.00" xmlns="http://www.w3.org/2000/svg" xmlns:xlink="http://www.w3.org/1999/xlink">
<g id="graph0" class="graph" transform="scale(1 1) rotate(0) translate(4 672)">
<title>postgres</title>
<polygon fill="#ffffff" stroke="transparent" points="-4,4 -4,-672 1176.5,-672 1176.5,4 -4,4"/>
<!-- public.articles -->
<g id="node1" class="node">
<title>public.articles</title>
<polygon fill="#efefef" stroke="transparent" points="290,-282.5 290,-317.5 543,-317.5 543,-282.5 290,-282.5"/>
<polygon fill="none" stroke="#000000" points="290,-282.5 290,-317.5 543,-317.5 543,-282.5 290,-282.5"/>
<text text-anchor="start" x="313.3709" y="-295.3" font-family="Arial Bold" font-size="18.00" fill="#000000">public.articles</text>
<text text-anchor="start" x="422.3753" y="-295.3" font-family="Arial" font-size="14.00" fill="#000000"> </text>
<text text-anchor="start" x="426.2659" y="-295.3" font-family="Arial" font-size="14.00" fill="#666666">[BASE TABLE]</text>
<polygon fill="none" stroke="#000000" points="290,-252.5 290,-282.5 543,-282.5 543,-252.5 290,-252.5"/>
<text text-anchor="start" x="297" y="-263.9" font-family="Arial" font-size="14.00" fill="#000000">id </text>
<text text-anchor="start" x="311.7798" y="-263.9" font-family="Arial" font-size="14.00" fill="#666666">[uuid]</text>
<polygon fill="none" stroke="#000000" points="290,-222.5 290,-252.5 543,-252.5 543,-222.5 290,-222.5"/>
<text text-anchor="start" x="297" y="-233.9" font-family="Arial" font-size="14.00" fill="#000000">title </text>
<text text-anchor="start" x="322.6676" y="-233.9" font-family="Arial" font-size="14.00" fill="#666666">[varchar]</text>
<polygon fill="none" stroke="#000000" points="290,-192.5 290,-222.5 543,-222.5 543,-192.5 290,-192.5"/>
<text text-anchor="start" x="297" y="-203.9" font-family="Arial" font-size="14.00" fill="#000000">url </text>
<text text-anchor="start" x="316.4404" y="-203.9" font-family="Arial" font-size="14.00" fill="#666666">[varchar]</text>
<polygon fill="none" stroke="#000000" points="290,-162.5 290,-192.5 543,-192.5 543,-162.5 290,-162.5"/>
<text text-anchor="start" x="297" y="-173.9" font-family="Arial" font-size="14.00" fill="#000000">description </text>
<text text-anchor="start" x="368.568" y="-173.9" font-family="Arial" font-size="14.00" fill="#666666">[varchar]</text>
<polygon fill="none" stroke="#000000" points="290,-132.5 290,-162.5 543,-162.5 543,-132.5 290,-132.5"/>
<text text-anchor="start" x="297" y="-143.9" font-family="Arial" font-size="14.00" fill="#000000">thumbnail </text>
<text text-anchor="start" x="361.568" y="-143.9" font-family="Arial" font-size="14.00" fill="#666666">[varchar]</text>
<polygon fill="none" stroke="#000000" points="290,-102.5 290,-132.5 543,-132.5 543,-102.5 290,-102.5"/>
<text text-anchor="start" x="297" y="-113.9" font-family="Arial" font-size="14.00" fill="#000000">created_at </text>
<text text-anchor="start" x="367.028" y="-113.9" font-family="Arial" font-size="14.00" fill="#666666">[timestamp with time zone]</text>
<polygon fill="none" stroke="#000000" points="290,-72.5 290,-102.5 543,-102.5 543,-72.5 290,-72.5"/>
<text text-anchor="start" x="296.6915" y="-83.9" font-family="Arial" font-size="14.00" fill="#000000">updated_at </text>
<text text-anchor="start" x="370.6241" y="-83.9" font-family="Arial" font-size="14.00" fill="#666666">[timestamp with time zone]</text>
<polygon fill="none" stroke="#000000" points="290,-42.5 290,-72.5 543,-72.5 543,-42.5 290,-42.5"/>
<text text-anchor="start" x="297" y="-53.9" font-family="Arial" font-size="14.00" fill="#000000">deleted_at </text>
<text text-anchor="start" x="366.2566" y="-53.9" font-family="Arial" font-size="14.00" fill="#666666">[timestamp with time zone]</text>
</g>
<!-- public.users -->
<g id="node2" class="node">
<title>public.users</title>
<polygon fill="#efefef" stroke="transparent" points="837,-574.5 837,-609.5 1130,-609.5 1130,-574.5 837,-574.5"/>
<polygon fill="none" stroke="#000000" points="837,-574.5 837,-609.5 1130,-609.5 1130,-574.5 837,-574.5"/>
<text text-anchor="start" x="886.8662" y="-587.3" font-family="Arial Bold" font-size="18.00" fill="#000000">public.users</text>
<text text-anchor="start" x="982.88" y="-587.3" font-family="Arial" font-size="14.00" fill="#000000"> </text>
<text text-anchor="start" x="986.7706" y="-587.3" font-family="Arial" font-size="14.00" fill="#666666">[BASE TABLE]</text>
<polygon fill="none" stroke="#000000" points="837,-544.5 837,-574.5 1130,-574.5 1130,-544.5 837,-544.5"/>
<text text-anchor="start" x="844" y="-555.9" font-family="Arial" font-size="14.00" fill="#000000">id </text>
<text text-anchor="start" x="858.7798" y="-555.9" font-family="Arial" font-size="14.00" fill="#666666">[uuid]</text>
<polygon fill="none" stroke="#000000" points="837,-514.5 837,-544.5 1130,-544.5 1130,-514.5 837,-514.5"/>
<text text-anchor="start" x="843.8577" y="-525.9" font-family="Arial" font-size="14.00" fill="#000000">last_logged_in_at </text>
<text text-anchor="start" x="957.4579" y="-525.9" font-family="Arial" font-size="14.00" fill="#666666">[timestamp with time zone]</text>
<polygon fill="none" stroke="#000000" points="837,-484.5 837,-514.5 1130,-514.5 1130,-484.5 837,-484.5"/>
<text text-anchor="start" x="844" y="-495.9" font-family="Arial" font-size="14.00" fill="#000000">created_at </text>
<text text-anchor="start" x="914.028" y="-495.9" font-family="Arial" font-size="14.00" fill="#666666">[timestamp with time zone]</text>
<polygon fill="none" stroke="#000000" points="837,-454.5 837,-484.5 1130,-484.5 1130,-454.5 837,-454.5"/>
<text text-anchor="start" x="844" y="-465.9" font-family="Arial" font-size="14.00" fill="#000000">updated_at </text>
<text text-anchor="start" x="917.9326" y="-465.9" font-family="Arial" font-size="14.00" fill="#666666">[timestamp with time zone]</text>
</g>
<!-- public.article_tags -->
<g id="node3" class="node">
<title>public.article_tags</title>
<polygon fill="#efefef" stroke="transparent" points="107,-589.5 107,-624.5 362,-624.5 362,-589.5 107,-589.5"/>
<polygon fill="none" stroke="#000000" points="107,-589.5 107,-624.5 362,-624.5 362,-589.5 107,-589.5"/>
<text text-anchor="start" x="113.8605" y="-602.3" font-family="Arial Bold" font-size="18.00" fill="#000000">public.article_tags</text>
<text text-anchor="start" x="257.8857" y="-602.3" font-family="Arial" font-size="14.00" fill="#000000"> </text>
<text text-anchor="start" x="261.7763" y="-602.3" font-family="Arial" font-size="14.00" fill="#666666">[BASE TABLE]</text>
<polygon fill="none" stroke="#000000" points="107,-559.5 107,-589.5 362,-589.5 362,-559.5 107,-559.5"/>
<text text-anchor="start" x="114" y="-570.9" font-family="Arial" font-size="14.00" fill="#000000">id </text>
<text text-anchor="start" x="128.7798" y="-570.9" font-family="Arial" font-size="14.00" fill="#666666">[uuid]</text>
<polygon fill="none" stroke="#000000" points="107,-529.5 107,-559.5 362,-559.5 362,-529.5 107,-529.5"/>
<text text-anchor="start" x="114" y="-540.9" font-family="Arial" font-size="14.00" fill="#000000">tag </text>
<text text-anchor="start" x="137.3464" y="-540.9" font-family="Arial" font-size="14.00" fill="#666666">[varchar]</text>
<polygon fill="none" stroke="#000000" points="107,-499.5 107,-529.5 362,-529.5 362,-499.5 107,-499.5"/>
<text text-anchor="start" x="114" y="-510.9" font-family="Arial" font-size="14.00" fill="#000000">created_at </text>
<text text-anchor="start" x="184.028" y="-510.9" font-family="Arial" font-size="14.00" fill="#666666">[timestamp with time zone]</text>
<polygon fill="none" stroke="#000000" points="107,-469.5 107,-499.5 362,-499.5 362,-469.5 107,-469.5"/>
<text text-anchor="start" x="114" y="-480.9" font-family="Arial" font-size="14.00" fill="#000000">updated_at </text>
<text text-anchor="start" x="187.9326" y="-480.9" font-family="Arial" font-size="14.00" fill="#666666">[timestamp with time zone]</text>
<polygon fill="none" stroke="#000000" points="107,-439.5 107,-469.5 362,-469.5 362,-439.5 107,-439.5"/>
<text text-anchor="start" x="114" y="-450.9" font-family="Arial" font-size="14.00" fill="#000000">article_id </text>
<text text-anchor="start" x="173.892" y="-450.9" font-family="Arial" font-size="14.00" fill="#666666">[uuid]</text>
</g>
<!-- public.article_tags&#45;&gt;public.articles -->
<g id="edge1" class="edge">
<title>public.article_tags:article_id&#45;&gt;public.articles:id</title>
<path fill="none" stroke="#000000" d="M371.6964,-451.8321C383.5432,-443.1433 373.2311,-415.1723 362,-397 343.1909,-366.5662 308.8091,-391.4338 290,-361 268.153,-325.6507 248.4444,-267.5 290,-267.5"/>
<polygon fill="#000000" stroke="#000000" points="371.6417,-451.8471 360.8062,-450.1612 366.8209,-453.1736 362,-454.5 362,-454.5 362,-454.5 366.8209,-453.1736 363.1938,-458.8388 371.6417,-451.8471 371.6417,-451.8471"/>
<text text-anchor="start" x="6.8365" y="-464.5" font-family="Arial" font-size="10.00" fill="#000000">FOREIGN KEY (article_id) REFERENCES articles(id) ON DELETE CASCADE</text>
</g>
<!-- public.read_articles -->
<g id="node4" class="node">
<title>public.read_articles</title>
<polygon fill="#efefef" stroke="transparent" points="466,-574.5 466,-609.5 732,-609.5 732,-574.5 466,-574.5"/>
<polygon fill="none" stroke="#000000" points="466,-574.5 466,-609.5 732,-609.5 732,-574.5 466,-574.5"/>
<text text-anchor="start" x="472.8624" y="-587.3" font-family="Arial Bold" font-size="18.00" fill="#000000">public.read_articles</text>
<text text-anchor="start" x="627.8838" y="-587.3" font-family="Arial" font-size="14.00" fill="#000000"> </text>
<text text-anchor="start" x="631.7744" y="-587.3" font-family="Arial" font-size="14.00" fill="#666666">[BASE TABLE]</text>
<polygon fill="none" stroke="#000000" points="466,-544.5 466,-574.5 732,-574.5 732,-544.5 466,-544.5"/>
<text text-anchor="start" x="473" y="-555.9" font-family="Arial" font-size="14.00" fill="#000000">id </text>
<text text-anchor="start" x="487.7798" y="-555.9" font-family="Arial" font-size="14.00" fill="#666666">[uuid]</text>
<polygon fill="none" stroke="#000000" points="466,-514.5 466,-544.5 732,-544.5 732,-514.5 466,-514.5"/>
<text text-anchor="start" x="473" y="-525.9" font-family="Arial" font-size="14.00" fill="#000000">user_id </text>
<text text-anchor="start" x="522.7882" y="-525.9" font-family="Arial" font-size="14.00" fill="#666666">[uuid]</text>
<polygon fill="none" stroke="#000000" points="466,-484.5 466,-514.5 732,-514.5 732,-484.5 466,-484.5"/>
<text text-anchor="start" x="473" y="-495.9" font-family="Arial" font-size="14.00" fill="#000000">read_at </text>
<text text-anchor="start" x="524.3548" y="-495.9" font-family="Arial" font-size="14.00" fill="#666666">[timestamp with time zone]</text>
<polygon fill="none" stroke="#000000" points="466,-454.5 466,-484.5 732,-484.5 732,-454.5 466,-454.5"/>
<text text-anchor="start" x="473" y="-465.9" font-family="Arial" font-size="14.00" fill="#000000">article_id </text>
<text text-anchor="start" x="532.892" y="-465.9" font-family="Arial" font-size="14.00" fill="#666666">[uuid]</text>
</g>
<!-- public.read_articles&#45;&gt;public.articles -->
<g id="edge2" class="edge">
<title>public.read_articles:article_id&#45;&gt;public.articles:id</title>
<path fill="none" stroke="#000000" d="M456.0758,-466.6404C445.0319,-457.8419 455.986,-430.644 466,-412 485.4231,-375.8381 523.5769,-397.1619 543,-361 562.6633,-324.391 584.5556,-267.5 543,-267.5"/>
<polygon fill="#000000" stroke="#000000" points="456.391,-466.7311 464.754,-473.8241 461.1955,-468.1156 466,-469.5 466,-469.5 466,-469.5 461.1955,-468.1156 467.246,-465.1759 456.391,-466.7311 456.391,-466.7311"/>
<text text-anchor="start" x="472.8365" y="-479.5" font-family="Arial" font-size="10.00" fill="#000000">FOREIGN KEY (article_id) REFERENCES articles(id) ON DELETE CASCADE</text>
</g>
</g>
</svg>
