<?xml version="1.0" encoding="UTF-8" standalone="no"?>
<!DOCTYPE svg PUBLIC "-//W3C//DTD SVG 1.1//EN"
 "http://www.w3.org/Graphics/SVG/1.1/DTD/svg11.dtd">
<!-- Generated by graphviz version 2.40.1 (20161225.0304)
 -->
<!-- Title: postgres Pages: 1 -->
<svg width="1319pt" height="736pt"
 viewBox="0.00 0.00 1319.00 736.00" xmlns="http://www.w3.org/2000/svg" xmlns:xlink="http://www.w3.org/1999/xlink">
<g id="graph0" class="graph" transform="scale(1 1) rotate(0) translate(4 732)">
<title>postgres</title>
<polygon fill="#ffffff" stroke="transparent" points="-4,4 -4,-732 1315,-732 1315,4 -4,4"/>
<!-- public.articles -->
<g id="node1" class="node">
<title>public.articles</title>
<polygon fill="#efefef" stroke="transparent" points="290,-282.5 290,-317.5 543,-317.5 543,-282.5 290,-282.5"/>
<polygon fill="none" stroke="#000000" points="290,-282.5 290,-317.5 543,-317.5 543,-282.5 290,-282.5"/>
<text text-anchor="start" x="313.3709" y="-295.3" font-family="Arial Bold" font-size="18.00" fill="#000000">public.articles</text>
<text text-anchor="start" x="422.3753" y="-295.3" font-family="Arial" font-size="14.00" fill="#000000"> </text>
<text text-anchor="start" x="426.2659" y="-295.3" font-family="Arial" font-size="14.00" fill="#666666">[BASE TABLE]</text>
<polygon fill="none" stroke="#000000" points="290,-252.5 290,-282.5 543,-282.5 543,-252.5 290,-252.5"/>
<text text-anchor="start" x="297" y="-263.9" font-family="Arial" font-size="14.00" fill="#000000">id </text>
<text text-anchor="start" x="311.7798" y="-263.9" font-family="Arial" font-size="14.00" fill="#666666">[uuid]</text>
<polygon fill="none" stroke="#000000" points="290,-222.5 290,-252.5 543,-252.5 543,-222.5 290,-222.5"/>
<text text-anchor="start" x="297" y="-233.9" font-family="Arial" font-size="14.00" fill="#000000">title </text>
<text text-anchor="start" x="322.6676" y="-233.9" font-family="Arial" font-size="14.00" fill="#666666">[varchar]</text>
<polygon fill="none" stroke="#000000" points="290,-192.5 290,-222.5 543,-222.5 543,-192.5 290,-192.5"/>
<text text-anchor="start" x="297" y="-203.9" font-family="Arial" font-size="14.00" fill="#000000">url </text>
<text text-anchor="start" x="316.4404" y="-203.9" font-family="Arial" font-size="14.00" fill="#666666">[varchar]</text>
<polygon fill="none" stroke="#000000" points="290,-162.5 290,-192.5 543,-192.5 543,-162.5 290,-162.5"/>
<text text-anchor="start" x="297" y="-173.9" font-family="Arial" font-size="14.00" fill="#000000">description </text>
<text text-anchor="start" x="368.568" y="-173.9" font-family="Arial" font-size="14.00" fill="#666666">[varchar]</text>
<polygon fill="none" stroke="#000000" points="290,-132.5 290,-162.5 543,-162.5 543,-132.5 290,-132.5"/>
<text text-anchor="start" x="297" y="-143.9" font-family="Arial" font-size="14.00" fill="#000000">thumbnail </text>
<text text-anchor="start" x="361.568" y="-143.9" font-family="Arial" font-size="14.00" fill="#666666">[varchar]</text>
<polygon fill="none" stroke="#000000" points="290,-102.5 290,-132.5 543,-132.5 543,-102.5 290,-102.5"/>
<text text-anchor="start" x="297" y="-113.9" font-family="Arial" font-size="14.00" fill="#000000">created_at </text>
<text text-anchor="start" x="367.028" y="-113.9" font-family="Arial" font-size="14.00" fill="#666666">[timestamp with time zone]</text>
<polygon fill="none" stroke="#000000" points="290,-72.5 290,-102.5 543,-102.5 543,-72.5 290,-72.5"/>
<text text-anchor="start" x="296.6915" y="-83.9" font-family="Arial" font-size="14.00" fill="#000000">updated_at </text>
<text text-anchor="start" x="370.6241" y="-83.9" font-family="Arial" font-size="14.00" fill="#666666">[timestamp with time zone]</text>
<polygon fill="none" stroke="#000000" points="290,-42.5 290,-72.5 543,-72.5 543,-42.5 290,-42.5"/>
<text text-anchor="start" x="297" y="-53.9" font-family="Arial" font-size="14.00" fill="#000000">deleted_at </text>
<text text-anchor="start" x="366.2566" y="-53.9" font-family="Arial" font-size="14.00" fill="#666666">[timestamp with time zone]</text>
</g>
<!-- public.article_tags -->
<g id="node2" class="node">
<title>public.article_tags</title>
<polygon fill="#efefef" stroke="transparent" points="107,-619.5 107,-654.5 362,-654.5 362,-619.5 107,-619.5"/>
<polygon fill="none" stroke="#000000" points="107,-619.5 107,-654.5 362,-654.5 362,-619.5 107,-619.5"/>
<text text-anchor="start" x="113.8605" y="-632.3" font-family="Arial Bold" font-size="18.00" fill="#000000">public.article_tags</text>
<text text-anchor="start" x="257.8857" y="-632.3" font-family="Arial" font-size="14.00" fill="#000000"> </text>
<text text-anchor="start" x="261.7763" y="-632.3" font-family="Arial" font-size="14.00" fill="#666666">[BASE TABLE]</text>
<polygon fill="none" stroke="#000000" points="107,-589.5 107,-619.5 362,-619.5 362,-589.5 107,-589.5"/>
<text text-anchor="start" x="114" y="-600.9" font-family="Arial" font-size="14.00" fill="#000000">id </text>
<text text-anchor="start" x="128.7798" y="-600.9" font-family="Arial" font-size="14.00" fill="#666666">[uuid]</text>
<polygon fill="none" stroke="#000000" points="107,-559.5 107,-589.5 362,-589.5 362,-559.5 107,-559.5"/>
<text text-anchor="start" x="114" y="-570.9" font-family="Arial" font-size="14.00" fill="#000000">tag </text>
<text text-anchor="start" x="137.3464" y="-570.9" font-family="Arial" font-size="14.00" fill="#666666">[varchar]</text>
<polygon fill="none" stroke="#000000" points="107,-529.5 107,-559.5 362,-559.5 362,-529.5 107,-529.5"/>
<text text-anchor="start" x="114" y="-540.9" font-family="Arial" font-size="14.00" fill="#000000">created_at </text>
<text text-anchor="start" x="184.028" y="-540.9" font-family="Arial" font-size="14.00" fill="#666666">[timestamp with time zone]</text>
<polygon fill="none" stroke="#000000" points="107,-499.5 107,-529.5 362,-529.5 362,-499.5 107,-499.5"/>
<text text-anchor="start" x="114" y="-510.9" font-family="Arial" font-size="14.00" fill="#000000">updated_at </text>
<text text-anchor="start" x="187.9326" y="-510.9" font-family="Arial" font-size="14.00" fill="#666666">[timestamp with time zone]</text>
<polygon fill="none" stroke="#000000" points="107,-469.5 107,-499.5 362,-499.5 362,-469.5 107,-469.5"/>
<text text-anchor="start" x="114" y="-480.9" font-family="Arial" font-size="14.00" fill="#000000">article_id </text>
<text text-anchor="start" x="173.892" y="-480.9" font-family="Arial" font-size="14.00" fill="#666666">[uuid]</text>
</g>
<!-- public.article_tags&#45;&gt;public.articles -->
<g id="edge1" class="edge">
<title>public.article_tags:article_id&#45;&gt;public.articles:id</title>
<path fill="none" stroke="#000000" d="M371.7919,-481.7048C382.4551,-473.092 370.5216,-446.3717 362,-427 344.5203,-387.2646 307.4797,-400.7354 290,-361 273.2671,-322.9622 248.4444,-267.5 290,-267.5"/>
<polygon fill="#000000" stroke="#000000" points="371.6159,-481.755 360.7648,-480.1728 366.808,-483.1275 362,-484.5 362,-484.5 362,-484.5 366.808,-483.1275 363.2352,-488.8272 371.6159,-481.755 371.6159,-481.755"/>
<text text-anchor="start" x="6.8365" y="-494.5" font-family="Arial" font-size="10.00" fill="#000000">FOREIGN KEY (article_id) REFERENCES articles(id) ON DELETE CASCADE</text>
</g>
<!-- public.users -->
<g id="node3" class="node">
<title>public.users</title>
<polygon fill="#efefef" stroke="transparent" points="837,-207.5 837,-242.5 1090,-242.5 1090,-207.5 837,-207.5"/>
<polygon fill="none" stroke="#000000" points="837,-207.5 837,-242.5 1090,-242.5 1090,-207.5 837,-207.5"/>
<text text-anchor="start" x="866.8662" y="-220.3" font-family="Arial Bold" font-size="18.00" fill="#000000">public.users</text>
<text text-anchor="start" x="962.88" y="-220.3" font-family="Arial" font-size="14.00" fill="#000000"> </text>
<text text-anchor="start" x="966.7706" y="-220.3" font-family="Arial" font-size="14.00" fill="#666666">[BASE TABLE]</text>
<polygon fill="none" stroke="#000000" points="837,-177.5 837,-207.5 1090,-207.5 1090,-177.5 837,-177.5"/>
<text text-anchor="start" x="844" y="-188.9" font-family="Arial" font-size="14.00" fill="#000000">id </text>
<text text-anchor="start" x="858.7798" y="-188.9" font-family="Arial" font-size="14.00" fill="#666666">[uuid]</text>
<polygon fill="none" stroke="#000000" points="837,-147.5 837,-177.5 1090,-177.5 1090,-147.5 837,-147.5"/>
<text text-anchor="start" x="844" y="-158.9" font-family="Arial" font-size="14.00" fill="#000000">created_at </text>
<text text-anchor="start" x="914.028" y="-158.9" font-family="Arial" font-size="14.00" fill="#666666">[timestamp with time zone]</text>
<polygon fill="none" stroke="#000000" points="837,-117.5 837,-147.5 1090,-147.5 1090,-117.5 837,-117.5"/>
<text text-anchor="start" x="843.6915" y="-128.9" font-family="Arial" font-size="14.00" fill="#000000">updated_at </text>
<text text-anchor="start" x="917.6241" y="-128.9" font-family="Arial" font-size="14.00" fill="#666666">[timestamp with time zone]</text>
</g>
<!-- public.auths -->
<g id="node4" class="node">
<title>public.auths</title>
<polygon fill="#efefef" stroke="transparent" points="837,-649.5 837,-684.5 1090,-684.5 1090,-649.5 837,-649.5"/>
<polygon fill="none" stroke="#000000" points="837,-649.5 837,-684.5 1090,-684.5 1090,-649.5 837,-649.5"/>
<text text-anchor="start" x="866.8581" y="-662.3" font-family="Arial Bold" font-size="18.00" fill="#000000">public.auths</text>
<text text-anchor="start" x="962.8881" y="-662.3" font-family="Arial" font-size="14.00" fill="#000000"> </text>
<text text-anchor="start" x="966.7787" y="-662.3" font-family="Arial" font-size="14.00" fill="#666666">[BASE TABLE]</text>
<polygon fill="none" stroke="#000000" points="837,-619.5 837,-649.5 1090,-649.5 1090,-619.5 837,-619.5"/>
<text text-anchor="start" x="844" y="-630.9" font-family="Arial" font-size="14.00" fill="#000000">id </text>
<text text-anchor="start" x="858.7798" y="-630.9" font-family="Arial" font-size="14.00" fill="#666666">[uuid]</text>
<polygon fill="none" stroke="#000000" points="837,-589.5 837,-619.5 1090,-619.5 1090,-589.5 837,-589.5"/>
<text text-anchor="start" x="844" y="-600.9" font-family="Arial" font-size="14.00" fill="#000000">login_id </text>
<text text-anchor="start" x="896.1234" y="-600.9" font-family="Arial" font-size="14.00" fill="#666666">[varchar]</text>
<polygon fill="none" stroke="#000000" points="837,-559.5 837,-589.5 1090,-589.5 1090,-559.5 837,-559.5"/>
<text text-anchor="start" x="844" y="-570.9" font-family="Arial" font-size="14.00" fill="#000000">email </text>
<text text-anchor="start" x="881.3296" y="-570.9" font-family="Arial" font-size="14.00" fill="#666666">[varchar]</text>
<polygon fill="none" stroke="#000000" points="837,-529.5 837,-559.5 1090,-559.5 1090,-529.5 837,-529.5"/>
<text text-anchor="start" x="844" y="-540.9" font-family="Arial" font-size="14.00" fill="#000000">password </text>
<text text-anchor="start" x="907.7882" y="-540.9" font-family="Arial" font-size="14.00" fill="#666666">[varchar]</text>
<polygon fill="none" stroke="#000000" points="837,-499.5 837,-529.5 1090,-529.5 1090,-499.5 837,-499.5"/>
<text text-anchor="start" x="844" y="-510.9" font-family="Arial" font-size="14.00" fill="#000000">created_at </text>
<text text-anchor="start" x="914.028" y="-510.9" font-family="Arial" font-size="14.00" fill="#666666">[timestamp with time zone]</text>
<polygon fill="none" stroke="#000000" points="837,-469.5 837,-499.5 1090,-499.5 1090,-469.5 837,-469.5"/>
<text text-anchor="start" x="843.6915" y="-480.9" font-family="Arial" font-size="14.00" fill="#000000">updated_at </text>
<text text-anchor="start" x="917.6241" y="-480.9" font-family="Arial" font-size="14.00" fill="#666666">[timestamp with time zone]</text>
<polygon fill="none" stroke="#000000" points="837,-439.5 837,-469.5 1090,-469.5 1090,-439.5 837,-439.5"/>
<text text-anchor="start" x="844" y="-450.9" font-family="Arial" font-size="14.00" fill="#000000">user_id </text>
<text text-anchor="start" x="893.7882" y="-450.9" font-family="Arial" font-size="14.00" fill="#666666">[uuid]</text>
</g>
<!-- public.auths&#45;&gt;public.users -->
<g id="edge2" class="edge">
<title>public.auths:user_id&#45;&gt;public.users:id</title>
<path fill="none" stroke="#000000" d="M963.5218,-429.1299C956.1554,-352.2895 865.7655,-365.8927 837,-286 822.9225,-246.9016 795.4444,-192.5 837,-192.5"/>
<polygon fill="#000000" stroke="#000000" points="963.5392,-429.5106 959.5048,-439.7074 963.7696,-434.5053 964,-439.5 964,-439.5 964,-439.5 963.7696,-434.5053 968.4952,-439.2926 963.5392,-429.5106 963.5392,-429.5106"/>
<text text-anchor="start" x="971.0535" y="-449.5" font-family="Arial" font-size="10.00" fill="#000000">FOREIGN KEY (user_id) REFERENCES users(id) ON DELETE CASCADE</text>
</g>
<!-- public.read_articles -->
<g id="node5" class="node">
<title>public.read_articles</title>
<polygon fill="#efefef" stroke="transparent" points="466,-604.5 466,-639.5 732,-639.5 732,-604.5 466,-604.5"/>
<polygon fill="none" stroke="#000000" points="466,-604.5 466,-639.5 732,-639.5 732,-604.5 466,-604.5"/>
<text text-anchor="start" x="472.8624" y="-617.3" font-family="Arial Bold" font-size="18.00" fill="#000000">public.read_articles</text>
<text text-anchor="start" x="627.8838" y="-617.3" font-family="Arial" font-size="14.00" fill="#000000"> </text>
<text text-anchor="start" x="631.7744" y="-617.3" font-family="Arial" font-size="14.00" fill="#666666">[BASE TABLE]</text>
<polygon fill="none" stroke="#000000" points="466,-574.5 466,-604.5 732,-604.5 732,-574.5 466,-574.5"/>
<text text-anchor="start" x="473" y="-585.9" font-family="Arial" font-size="14.00" fill="#000000">id </text>
<text text-anchor="start" x="487.7798" y="-585.9" font-family="Arial" font-size="14.00" fill="#666666">[uuid]</text>
<polygon fill="none" stroke="#000000" points="466,-544.5 466,-574.5 732,-574.5 732,-544.5 466,-544.5"/>
<text text-anchor="start" x="473" y="-555.9" font-family="Arial" font-size="14.00" fill="#000000">user_id </text>
<text text-anchor="start" x="522.7882" y="-555.9" font-family="Arial" font-size="14.00" fill="#666666">[uuid]</text>
<polygon fill="none" stroke="#000000" points="466,-514.5 466,-544.5 732,-544.5 732,-514.5 466,-514.5"/>
<text text-anchor="start" x="473" y="-525.9" font-family="Arial" font-size="14.00" fill="#000000">read_at </text>
<text text-anchor="start" x="524.3548" y="-525.9" font-family="Arial" font-size="14.00" fill="#666666">[timestamp with time zone]</text>
<polygon fill="none" stroke="#000000" points="466,-484.5 466,-514.5 732,-514.5 732,-484.5 466,-484.5"/>
<text text-anchor="start" x="473" y="-495.9" font-family="Arial" font-size="14.00" fill="#000000">article_id </text>
<text text-anchor="start" x="532.892" y="-495.9" font-family="Arial" font-size="14.00" fill="#666666">[uuid]</text>
</g>
<!-- public.read_articles&#45;&gt;public.articles -->
<g id="edge3" class="edge">
<title>public.read_articles:article_id&#45;&gt;public.articles:id</title>
<path fill="none" stroke="#000000" d="M456.2675,-496.7298C445.7755,-488.1888 458.1493,-461.6532 466,-442 484.4258,-395.8735 524.5742,-407.1265 543,-361 558.4155,-322.4095 584.5556,-267.5 543,-267.5"/>
<polygon fill="#000000" stroke="#000000" points="456.382,-496.7623 464.768,-503.8281 461.191,-498.1312 466,-499.5 466,-499.5 466,-499.5 461.191,-498.1312 467.232,-495.1719 456.382,-496.7623 456.382,-496.7623"/>
<text text-anchor="start" x="201.3365" y="-483.5" font-family="Arial" font-size="10.00" fill="#000000">FOREIGN KEY (article_id) REFERENCES articles(id) ON DELETE CASCADE</text>
</g>
</g>
</svg>
